<?xml version="1.0" encoding="UTF-8" standalone="no"?>
<!DOCTYPE svg PUBLIC "-//W3C//DTD SVG 1.1//EN" "http://www.w3.org/Graphics/SVG/1.1/DTD/svg11.dtd">
<svg width="100%" height="100%" viewBox="0 0 1280 640" version="1.1" xmlns="http://www.w3.org/2000/svg" xmlns:xlink="http://www.w3.org/1999/xlink" xml:space="preserve" xmlns:serif="http://www.serif.com/" style="fill-rule:evenodd;clip-rule:evenodd;stroke-linejoin:round;stroke-miterlimit:2;">
    <g id="Background" transform="matrix(8.70744,5.33177e-16,-5.33177e-16,-4.35372,-4208.74,2147.69)">
        <path d="M630.351,346.3L483.35,346.3L483.35,493.301L630.351,493.301L630.351,346.3L630.351,346.3Z" style="fill:rgb(51,51,51);fill-rule:nonzero;"/>
    </g>
    <g id="PHPMailer" transform="matrix(0.986688,0,0,0.986688,12.9314,1.29196)">
        <g transform="matrix(1.14074,0,0,1,-76.5738,0)">
            <g id="path68" transform="matrix(2.14981,0,0,-2.46335,-776.134,1230.68)">
                <path d="M614.574,416.832L584.18,445.184L584.18,381.999L644.963,381.999L644.963,445.181L614.574,416.832Z" style="fill:rgb(248,203,102);fill-rule:nonzero;"/>
            </g>
            <g id="path74" transform="matrix(2.14981,0,0,-2.56665,-776.135,1278.22)">
                <path d="M644.989,460.2L584.155,460.2L614.574,432.967L644.989,460.2Z" style="fill:rgb(248,203,102);fill-rule:nonzero;"/>
            </g>
        </g>
        <g>
            <g transform="matrix(260.4,0,0,280,52.6877,289.686)">
                <path d="M0.488,-0.47C0.488,-0.441 0.484,-0.412 0.476,-0.385C0.468,-0.357 0.455,-0.333 0.439,-0.312C0.422,-0.29 0.4,-0.274 0.374,-0.261C0.348,-0.248 0.318,-0.242 0.282,-0.242L0.173,-0.242L0.173,0L0.055,0L0.055,-0.688L0.277,-0.688C0.314,-0.688 0.345,-0.683 0.371,-0.672C0.398,-0.662 0.419,-0.647 0.437,-0.627C0.454,-0.608 0.467,-0.585 0.476,-0.559C0.484,-0.532 0.488,-0.502 0.488,-0.47ZM0.369,-0.468C0.369,-0.503 0.36,-0.53 0.343,-0.549C0.326,-0.567 0.299,-0.576 0.264,-0.576L0.173,-0.576L0.173,-0.353L0.268,-0.353C0.285,-0.353 0.3,-0.356 0.313,-0.361C0.326,-0.367 0.336,-0.375 0.345,-0.385C0.353,-0.395 0.359,-0.407 0.363,-0.421C0.367,-0.435 0.369,-0.451 0.369,-0.468Z" style="fill:rgb(255,254,254);fill-rule:nonzero;"/>
            </g>
            <g transform="matrix(260.4,0,0,280,184.157,289.686)">
                <path d="M0.38,0L0.38,-0.273L0.173,-0.273L0.173,0L0.055,0L0.055,-0.688L0.173,-0.688L0.173,-0.382L0.38,-0.382L0.38,-0.688L0.498,-0.688L0.498,0L0.38,0Z" style="fill:rgb(255,254,254);fill-rule:nonzero;"/>
            </g>
            <g transform="matrix(260.4,0,0,280,327.324,289.686)">
                <path d="M0.488,-0.47C0.488,-0.441 0.484,-0.412 0.476,-0.385C0.468,-0.357 0.455,-0.333 0.439,-0.312C0.422,-0.29 0.4,-0.274 0.374,-0.261C0.348,-0.248 0.318,-0.242 0.282,-0.242L0.173,-0.242L0.173,0L0.055,0L0.055,-0.688L0.277,-0.688C0.314,-0.688 0.345,-0.683 0.371,-0.672C0.398,-0.662 0.419,-0.647 0.437,-0.627C0.454,-0.608 0.467,-0.585 0.476,-0.559C0.484,-0.532 0.488,-0.502 0.488,-0.47ZM0.369,-0.468C0.369,-0.503 0.36,-0.53 0.343,-0.549C0.326,-0.567 0.299,-0.576 0.264,-0.576L0.173,-0.576L0.173,-0.353L0.268,-0.353C0.285,-0.353 0.3,-0.356 0.313,-0.361C0.326,-0.367 0.336,-0.375 0.345,-0.385C0.353,-0.395 0.359,-0.407 0.363,-0.421C0.367,-0.435 0.369,-0.451 0.369,-0.468Z" style="fill:rgb(255,254,254);fill-rule:nonzero;"/>
            </g>
        </g>
        <g>
            <g transform="matrix(260.4,0,0,280,640.738,289.686)">
                <path d="M0.453,0L0.352,-0.161L0.128,-0.161L0.128,0L0.021,0L0.021,-0.688L0.128,-0.688L0.57,0L0.453,0ZM0.282,-0.27L0.128,-0.515L0.128,-0.27L0.282,-0.27Z" style="fill:rgb(255,254,254);fill-rule:nonzero;"/>
            </g>
            <g transform="matrix(260.4,0,0,280,787.905,289.686)">
                <rect x="0.055" y="-0.688" width="0.119" height="0.688" style="fill:rgb(255,254,254);fill-rule:nonzero;"/>
            </g>
            <g transform="matrix(260.4,0,0,280,816.346,289.686)">
                <path d="M0.124,0L0.124,-0.688L0.242,-0.688L0.242,-0.111L0.499,-0.111L0.499,0L0.124,0Z" style="fill:rgb(255,254,254);fill-rule:nonzero;"/>
            </g>
            <g transform="matrix(260.4,0,0,280,936.864,289.686)">
                <path d="M0.089,0L0.089,-0.688L0.483,-0.688L0.483,-0.577L0.207,-0.577L0.207,-0.382L0.459,-0.382L0.459,-0.271L0.207,-0.271L0.207,-0.111L0.499,-0.111L0.499,0L0.089,0Z" style="fill:rgb(255,254,254);fill-rule:nonzero;"/>
            </g>
            <g transform="matrix(233.533,0,0,280,1069.8,289.686)">
                <path d="M0.442,0L0.312,-0.261L0.173,-0.261L0.173,0L0.055,0L0.055,-0.688L0.336,-0.688C0.372,-0.688 0.402,-0.683 0.429,-0.674C0.455,-0.664 0.477,-0.65 0.495,-0.633C0.512,-0.615 0.525,-0.593 0.534,-0.568C0.543,-0.543 0.547,-0.514 0.547,-0.483C0.547,-0.457 0.544,-0.434 0.538,-0.412C0.531,-0.391 0.523,-0.372 0.512,-0.355C0.501,-0.339 0.487,-0.325 0.472,-0.314C0.457,-0.302 0.44,-0.294 0.422,-0.289L0.575,0L0.442,0ZM0.428,-0.477C0.428,-0.511 0.419,-0.535 0.401,-0.552C0.383,-0.568 0.357,-0.576 0.324,-0.576L0.173,-0.576L0.173,-0.373L0.327,-0.373C0.345,-0.373 0.36,-0.376 0.373,-0.381C0.385,-0.386 0.396,-0.393 0.404,-0.402C0.412,-0.411 0.418,-0.422 0.422,-0.435C0.426,-0.448 0.428,-0.462 0.428,-0.477Z" style="fill:rgb(255,254,254);fill-rule:nonzero;"/>
            </g>
        </g>
    </g>
    <g transform="matrix(1,0,0,1,73.8296,353)">
        <g transform="matrix(41,0,0,41,0,29.709)">
            <path d="M0.352,-0.612L0.352,0L0.259,0L0.259,-0.612L0.022,-0.612L0.022,-0.688L0.588,-0.688L0.588,-0.612L0.352,-0.612Z" style="fill:rgb(255,254,254);fill-rule:nonzero;"/>
        </g>
        <g transform="matrix(41,0,0,41,25.0444,29.709)">
            <path d="M0.155,-0.438C0.165,-0.456 0.175,-0.471 0.187,-0.484C0.198,-0.496 0.21,-0.507 0.224,-0.515C0.238,-0.523 0.253,-0.529 0.269,-0.532C0.285,-0.536 0.304,-0.538 0.324,-0.538C0.358,-0.538 0.385,-0.534 0.407,-0.524C0.429,-0.515 0.446,-0.503 0.458,-0.486C0.471,-0.47 0.479,-0.45 0.484,-0.427C0.489,-0.404 0.491,-0.379 0.491,-0.352L0.491,0L0.403,0L0.403,-0.335C0.403,-0.357 0.401,-0.377 0.399,-0.394C0.396,-0.411 0.391,-0.425 0.383,-0.436C0.375,-0.448 0.364,-0.456 0.35,-0.462C0.335,-0.467 0.317,-0.47 0.294,-0.47C0.273,-0.47 0.254,-0.466 0.238,-0.459C0.221,-0.451 0.206,-0.441 0.195,-0.427C0.183,-0.414 0.174,-0.397 0.167,-0.377C0.16,-0.358 0.157,-0.336 0.157,-0.312L0.157,0L0.069,0L0.069,-0.725L0.157,-0.725L0.157,-0.536C0.157,-0.525 0.157,-0.515 0.157,-0.504C0.156,-0.493 0.156,-0.483 0.156,-0.474C0.155,-0.465 0.155,-0.457 0.154,-0.451C0.154,-0.445 0.154,-0.44 0.153,-0.438L0.155,-0.438Z" style="fill:rgb(255,254,254);fill-rule:nonzero;"/>
        </g>
        <g transform="matrix(41,0,0,41,47.8467,29.709)">
            <path d="M0.135,-0.246C0.135,-0.218 0.138,-0.192 0.143,-0.169C0.149,-0.146 0.158,-0.126 0.17,-0.109C0.182,-0.092 0.197,-0.079 0.215,-0.07C0.234,-0.061 0.256,-0.056 0.282,-0.056C0.32,-0.056 0.351,-0.064 0.374,-0.079C0.397,-0.094 0.412,-0.114 0.42,-0.137L0.498,-0.115C0.492,-0.101 0.484,-0.086 0.474,-0.071C0.464,-0.056 0.451,-0.043 0.435,-0.031C0.418,-0.019 0.397,-0.009 0.372,-0.002C0.347,0.006 0.317,0.01 0.282,0.01C0.204,0.01 0.145,-0.014 0.104,-0.06C0.063,-0.107 0.042,-0.176 0.042,-0.268C0.042,-0.317 0.049,-0.359 0.061,-0.393C0.073,-0.428 0.09,-0.456 0.112,-0.477C0.133,-0.499 0.158,-0.514 0.187,-0.524C0.216,-0.533 0.246,-0.538 0.279,-0.538C0.323,-0.538 0.36,-0.531 0.39,-0.517C0.42,-0.502 0.444,-0.483 0.462,-0.457C0.48,-0.432 0.493,-0.402 0.5,-0.368C0.508,-0.334 0.512,-0.297 0.512,-0.257L0.512,-0.246L0.135,-0.246ZM0.421,-0.313C0.416,-0.369 0.402,-0.409 0.378,-0.435C0.355,-0.46 0.321,-0.473 0.277,-0.473C0.263,-0.473 0.247,-0.471 0.231,-0.466C0.215,-0.461 0.2,-0.453 0.187,-0.441C0.173,-0.429 0.161,-0.413 0.152,-0.392C0.142,-0.371 0.137,-0.345 0.136,-0.313L0.421,-0.313Z" style="fill:rgb(255,254,254);fill-rule:nonzero;"/>
        </g>
        <g transform="matrix(41,0,0,41,82.04,29.709)">
            <path d="M0.614,-0.481C0.614,-0.451 0.609,-0.423 0.599,-0.397C0.589,-0.371 0.575,-0.349 0.555,-0.33C0.535,-0.311 0.511,-0.296 0.481,-0.285C0.451,-0.274 0.417,-0.268 0.377,-0.268L0.175,-0.268L0.175,0L0.082,0L0.082,-0.688L0.372,-0.688C0.412,-0.688 0.448,-0.683 0.478,-0.673C0.508,-0.663 0.534,-0.649 0.554,-0.631C0.574,-0.613 0.589,-0.591 0.599,-0.566C0.609,-0.54 0.614,-0.512 0.614,-0.481ZM0.521,-0.48C0.521,-0.524 0.507,-0.557 0.48,-0.579C0.454,-0.602 0.414,-0.613 0.36,-0.613L0.175,-0.613L0.175,-0.342L0.364,-0.342C0.418,-0.342 0.457,-0.354 0.483,-0.377C0.508,-0.401 0.521,-0.435 0.521,-0.48Z" style="fill:rgb(255,254,254);fill-rule:nonzero;"/>
        </g>
        <g transform="matrix(41,0,0,41,109.387,29.709)">
            <path d="M0.547,0L0.547,-0.319L0.175,-0.319L0.175,0L0.082,0L0.082,-0.688L0.175,-0.688L0.175,-0.397L0.547,-0.397L0.547,-0.688L0.641,-0.688L0.641,0L0.547,0Z" style="fill:rgb(255,254,254);fill-rule:nonzero;"/>
        </g>
        <g transform="matrix(41,0,0,41,138.996,29.709)">
            <path d="M0.614,-0.481C0.614,-0.451 0.609,-0.423 0.599,-0.397C0.589,-0.371 0.575,-0.349 0.555,-0.33C0.535,-0.311 0.511,-0.296 0.481,-0.285C0.451,-0.274 0.417,-0.268 0.377,-0.268L0.175,-0.268L0.175,0L0.082,0L0.082,-0.688L0.372,-0.688C0.412,-0.688 0.448,-0.683 0.478,-0.673C0.508,-0.663 0.534,-0.649 0.554,-0.631C0.574,-0.613 0.589,-0.591 0.599,-0.566C0.609,-0.54 0.614,-0.512 0.614,-0.481ZM0.521,-0.48C0.521,-0.524 0.507,-0.557 0.48,-0.579C0.454,-0.602 0.414,-0.613 0.36,-0.613L0.175,-0.613L0.175,-0.342L0.364,-0.342C0.418,-0.342 0.457,-0.354 0.483,-0.377C0.508,-0.401 0.521,-0.435 0.521,-0.48Z" style="fill:rgb(255,254,254);fill-rule:nonzero;"/>
        </g>
        <g transform="matrix(41,0,0,41,176.993,29.709)">
            <path d="M0.135,-0.246C0.135,-0.218 0.138,-0.192 0.143,-0.169C0.149,-0.146 0.158,-0.126 0.17,-0.109C0.182,-0.092 0.197,-0.079 0.215,-0.07C0.234,-0.061 0.256,-0.056 0.282,-0.056C0.32,-0.056 0.351,-0.064 0.374,-0.079C0.397,-0.094 0.412,-0.114 0.42,-0.137L0.498,-0.115C0.492,-0.101 0.484,-0.086 0.474,-0.071C0.464,-0.056 0.451,-0.043 0.435,-0.031C0.418,-0.019 0.397,-0.009 0.372,-0.002C0.347,0.006 0.317,0.01 0.282,0.01C0.204,0.01 0.145,-0.014 0.104,-0.06C0.063,-0.107 0.042,-0.176 0.042,-0.268C0.042,-0.317 0.049,-0.359 0.061,-0.393C0.073,-0.428 0.09,-0.456 0.112,-0.477C0.133,-0.499 0.158,-0.514 0.187,-0.524C0.216,-0.533 0.246,-0.538 0.279,-0.538C0.323,-0.538 0.36,-0.531 0.39,-0.517C0.42,-0.502 0.444,-0.483 0.462,-0.457C0.48,-0.432 0.493,-0.402 0.5,-0.368C0.508,-0.334 0.512,-0.297 0.512,-0.257L0.512,-0.246L0.135,-0.246ZM0.421,-0.313C0.416,-0.369 0.402,-0.409 0.378,-0.435C0.355,-0.46 0.321,-0.473 0.277,-0.473C0.263,-0.473 0.247,-0.471 0.231,-0.466C0.215,-0.461 0.2,-0.453 0.187,-0.441C0.173,-0.429 0.161,-0.413 0.152,-0.392C0.142,-0.371 0.137,-0.345 0.136,-0.313L0.421,-0.313Z" style="fill:rgb(255,254,254);fill-rule:nonzero;"/>
        </g>
        <g transform="matrix(41,0,0,41,199.795,29.709)">
            <path d="M0.375,0L0.375,-0.335C0.375,-0.361 0.373,-0.382 0.37,-0.399C0.367,-0.417 0.361,-0.431 0.354,-0.441C0.346,-0.452 0.336,-0.459 0.324,-0.464C0.311,-0.468 0.296,-0.47 0.278,-0.47C0.26,-0.47 0.243,-0.467 0.228,-0.459C0.213,-0.452 0.2,-0.441 0.19,-0.427C0.179,-0.414 0.171,-0.397 0.165,-0.376C0.16,-0.356 0.157,-0.333 0.157,-0.306L0.157,0L0.069,0L0.069,-0.416C0.069,-0.427 0.069,-0.438 0.069,-0.45C0.069,-0.463 0.069,-0.474 0.068,-0.485C0.068,-0.496 0.068,-0.505 0.067,-0.513C0.067,-0.521 0.067,-0.526 0.066,-0.528L0.149,-0.528C0.15,-0.527 0.15,-0.522 0.15,-0.515C0.151,-0.508 0.151,-0.5 0.152,-0.49C0.152,-0.481 0.153,-0.472 0.153,-0.462C0.153,-0.453 0.153,-0.444 0.153,-0.438L0.155,-0.438C0.163,-0.453 0.171,-0.467 0.18,-0.479C0.189,-0.492 0.2,-0.502 0.212,-0.511C0.224,-0.52 0.238,-0.526 0.254,-0.531C0.27,-0.536 0.288,-0.538 0.309,-0.538C0.349,-0.538 0.381,-0.53 0.404,-0.514C0.427,-0.498 0.444,-0.473 0.453,-0.438L0.454,-0.438C0.462,-0.453 0.471,-0.467 0.48,-0.479C0.49,-0.492 0.502,-0.502 0.515,-0.511C0.528,-0.52 0.542,-0.526 0.559,-0.531C0.575,-0.536 0.593,-0.538 0.614,-0.538C0.641,-0.538 0.664,-0.535 0.683,-0.527C0.703,-0.52 0.719,-0.509 0.731,-0.494C0.743,-0.479 0.752,-0.46 0.758,-0.436C0.764,-0.413 0.767,-0.385 0.767,-0.352L0.767,0L0.68,0L0.68,-0.335C0.68,-0.361 0.679,-0.382 0.675,-0.399C0.672,-0.417 0.667,-0.431 0.659,-0.441C0.651,-0.452 0.641,-0.459 0.629,-0.464C0.617,-0.468 0.601,-0.47 0.583,-0.47C0.565,-0.47 0.548,-0.467 0.533,-0.46C0.518,-0.453 0.505,-0.442 0.495,-0.429C0.484,-0.415 0.476,-0.398 0.47,-0.377C0.465,-0.357 0.462,-0.333 0.462,-0.306L0.462,0L0.375,0Z" style="fill:rgb(255,254,254);fill-rule:nonzero;"/>
        </g>
        <g transform="matrix(41,0,0,41,233.948,29.709)">
            <path d="M0.202,0.01C0.149,0.01 0.109,-0.004 0.083,-0.032C0.056,-0.06 0.042,-0.099 0.042,-0.147C0.042,-0.182 0.049,-0.211 0.062,-0.233C0.075,-0.255 0.093,-0.273 0.114,-0.286C0.135,-0.298 0.16,-0.307 0.187,-0.312C0.214,-0.317 0.242,-0.32 0.271,-0.32L0.389,-0.322L0.389,-0.351C0.389,-0.373 0.387,-0.391 0.382,-0.407C0.378,-0.422 0.371,-0.434 0.361,-0.444C0.352,-0.453 0.34,-0.46 0.326,-0.465C0.312,-0.469 0.295,-0.471 0.276,-0.471C0.259,-0.471 0.244,-0.47 0.23,-0.468C0.216,-0.465 0.204,-0.461 0.194,-0.454C0.184,-0.448 0.176,-0.439 0.17,-0.428C0.164,-0.418 0.16,-0.404 0.158,-0.387L0.066,-0.396C0.069,-0.416 0.075,-0.435 0.084,-0.453C0.094,-0.47 0.107,-0.485 0.123,-0.498C0.14,-0.511 0.161,-0.521 0.186,-0.528C0.212,-0.535 0.242,-0.538 0.278,-0.538C0.344,-0.538 0.394,-0.523 0.428,-0.492C0.461,-0.462 0.478,-0.418 0.478,-0.36L0.478,-0.133C0.478,-0.107 0.481,-0.087 0.488,-0.074C0.495,-0.061 0.508,-0.054 0.527,-0.054C0.532,-0.054 0.537,-0.055 0.542,-0.055C0.547,-0.056 0.552,-0.057 0.556,-0.058L0.556,-0.003C0.545,0 0.534,0.002 0.523,0.003C0.512,0.004 0.501,0.005 0.488,0.005C0.472,0.005 0.457,0.003 0.446,-0.002C0.434,-0.006 0.424,-0.013 0.417,-0.022C0.409,-0.031 0.403,-0.042 0.399,-0.055C0.396,-0.068 0.393,-0.083 0.392,-0.101L0.389,-0.101C0.38,-0.084 0.369,-0.069 0.358,-0.055C0.347,-0.042 0.334,-0.03 0.319,-0.02C0.304,-0.011 0.287,-0.003 0.268,0.002C0.249,0.007 0.227,0.01 0.202,0.01ZM0.222,-0.056C0.25,-0.056 0.275,-0.061 0.296,-0.072C0.317,-0.082 0.334,-0.095 0.348,-0.111C0.362,-0.127 0.372,-0.144 0.379,-0.163C0.386,-0.182 0.389,-0.2 0.389,-0.217L0.389,-0.261L0.293,-0.259C0.271,-0.258 0.251,-0.257 0.232,-0.254C0.212,-0.251 0.195,-0.246 0.181,-0.238C0.166,-0.23 0.154,-0.218 0.146,-0.204C0.137,-0.189 0.133,-0.17 0.133,-0.146C0.133,-0.117 0.141,-0.095 0.156,-0.08C0.171,-0.064 0.194,-0.056 0.222,-0.056Z" style="fill:rgb(255,254,254);fill-rule:nonzero;"/>
        </g>
        <g transform="matrix(41,0,0,41,256.75,29.709)">
            <path d="M0.067,-0.641L0.067,-0.725L0.155,-0.725L0.155,-0.641L0.067,-0.641ZM0.067,0L0.067,-0.528L0.155,-0.528L0.155,0L0.067,0Z" style="fill:rgb(255,254,254);fill-rule:nonzero;"/>
        </g>
        <g transform="matrix(41,0,0,41,265.859,29.709)">
            <rect x="0.067" y="-0.725" width="0.088" height="0.725" style="fill:rgb(255,254,254);fill-rule:nonzero;"/>
        </g>
        <g transform="matrix(41,0,0,41,286.359,29.709)">
            <path d="M0.134,-0.267C0.134,-0.236 0.136,-0.208 0.141,-0.183C0.145,-0.158 0.153,-0.136 0.163,-0.117C0.174,-0.099 0.187,-0.085 0.204,-0.075C0.221,-0.065 0.243,-0.06 0.268,-0.06C0.299,-0.06 0.325,-0.068 0.346,-0.085C0.367,-0.102 0.38,-0.128 0.385,-0.163L0.474,-0.157C0.471,-0.135 0.464,-0.114 0.455,-0.094C0.445,-0.074 0.432,-0.056 0.415,-0.041C0.398,-0.026 0.378,-0.013 0.354,-0.004C0.329,0.005 0.302,0.01 0.27,0.01C0.229,0.01 0.194,0.003 0.165,-0.011C0.136,-0.025 0.112,-0.045 0.094,-0.069C0.076,-0.094 0.063,-0.123 0.055,-0.156C0.047,-0.189 0.042,-0.226 0.042,-0.265C0.042,-0.3 0.045,-0.331 0.051,-0.359C0.057,-0.386 0.065,-0.41 0.076,-0.43C0.087,-0.45 0.099,-0.467 0.113,-0.481C0.128,-0.495 0.143,-0.506 0.16,-0.514C0.177,-0.523 0.194,-0.529 0.213,-0.532C0.231,-0.536 0.25,-0.538 0.269,-0.538C0.299,-0.538 0.325,-0.534 0.348,-0.526C0.371,-0.518 0.391,-0.507 0.408,-0.492C0.425,-0.478 0.438,-0.462 0.449,-0.442C0.459,-0.423 0.466,-0.403 0.471,-0.38L0.38,-0.374C0.376,-0.403 0.364,-0.426 0.346,-0.443C0.327,-0.461 0.301,-0.469 0.267,-0.469C0.242,-0.469 0.221,-0.465 0.204,-0.457C0.187,-0.448 0.174,-0.436 0.163,-0.419C0.153,-0.402 0.145,-0.381 0.141,-0.356C0.136,-0.331 0.134,-0.301 0.134,-0.267Z" style="fill:rgb(255,254,254);fill-rule:nonzero;"/>
        </g>
        <g transform="matrix(41,0,0,41,306.859,29.709)">
            <rect x="0.067" y="-0.725" width="0.088" height="0.725" style="fill:rgb(255,254,254);fill-rule:nonzero;"/>
        </g>
        <g transform="matrix(41,0,0,41,315.968,29.709)">
            <path d="M0.202,0.01C0.149,0.01 0.109,-0.004 0.083,-0.032C0.056,-0.06 0.042,-0.099 0.042,-0.147C0.042,-0.182 0.049,-0.211 0.062,-0.233C0.075,-0.255 0.093,-0.273 0.114,-0.286C0.135,-0.298 0.16,-0.307 0.187,-0.312C0.214,-0.317 0.242,-0.32 0.271,-0.32L0.389,-0.322L0.389,-0.351C0.389,-0.373 0.387,-0.391 0.382,-0.407C0.378,-0.422 0.371,-0.434 0.361,-0.444C0.352,-0.453 0.34,-0.46 0.326,-0.465C0.312,-0.469 0.295,-0.471 0.276,-0.471C0.259,-0.471 0.244,-0.47 0.23,-0.468C0.216,-0.465 0.204,-0.461 0.194,-0.454C0.184,-0.448 0.176,-0.439 0.17,-0.428C0.164,-0.418 0.16,-0.404 0.158,-0.387L0.066,-0.396C0.069,-0.416 0.075,-0.435 0.084,-0.453C0.094,-0.47 0.107,-0.485 0.123,-0.498C0.14,-0.511 0.161,-0.521 0.186,-0.528C0.212,-0.535 0.242,-0.538 0.278,-0.538C0.344,-0.538 0.394,-0.523 0.428,-0.492C0.461,-0.462 0.478,-0.418 0.478,-0.36L0.478,-0.133C0.478,-0.107 0.481,-0.087 0.488,-0.074C0.495,-0.061 0.508,-0.054 0.527,-0.054C0.532,-0.054 0.537,-0.055 0.542,-0.055C0.547,-0.056 0.552,-0.057 0.556,-0.058L0.556,-0.003C0.545,0 0.534,0.002 0.523,0.003C0.512,0.004 0.501,0.005 0.488,0.005C0.472,0.005 0.457,0.003 0.446,-0.002C0.434,-0.006 0.424,-0.013 0.417,-0.022C0.409,-0.031 0.403,-0.042 0.399,-0.055C0.396,-0.068 0.393,-0.083 0.392,-0.101L0.389,-0.101C0.38,-0.084 0.369,-0.069 0.358,-0.055C0.347,-0.042 0.334,-0.03 0.319,-0.02C0.304,-0.011 0.287,-0.003 0.268,0.002C0.249,0.007 0.227,0.01 0.202,0.01ZM0.222,-0.056C0.25,-0.056 0.275,-0.061 0.296,-0.072C0.317,-0.082 0.334,-0.095 0.348,-0.111C0.362,-0.127 0.372,-0.144 0.379,-0.163C0.386,-0.182 0.389,-0.2 0.389,-0.217L0.389,-0.261L0.293,-0.259C0.271,-0.258 0.251,-0.257 0.232,-0.254C0.212,-0.251 0.195,-0.246 0.181,-0.238C0.166,-0.23 0.154,-0.218 0.146,-0.204C0.137,-0.189 0.133,-0.17 0.133,-0.146C0.133,-0.117 0.141,-0.095 0.156,-0.08C0.171,-0.064 0.194,-0.056 0.222,-0.056Z" style="fill:rgb(255,254,254);fill-rule:nonzero;"/>
        </g>
        <g transform="matrix(41,0,0,41,338.771,29.709)">
            <path d="M0.464,-0.146C0.464,-0.121 0.459,-0.099 0.449,-0.08C0.44,-0.06 0.426,-0.044 0.408,-0.031C0.389,-0.018 0.367,-0.008 0.341,-0.001C0.314,0.006 0.284,0.01 0.25,0.01C0.219,0.01 0.191,0.007 0.167,0.003C0.142,-0.002 0.121,-0.01 0.102,-0.02C0.083,-0.03 0.068,-0.044 0.055,-0.061C0.043,-0.078 0.034,-0.099 0.028,-0.124L0.105,-0.139C0.113,-0.111 0.128,-0.09 0.152,-0.077C0.175,-0.064 0.208,-0.057 0.25,-0.057C0.268,-0.057 0.286,-0.058 0.302,-0.061C0.317,-0.064 0.331,-0.068 0.342,-0.074C0.354,-0.081 0.363,-0.089 0.369,-0.1C0.375,-0.11 0.378,-0.124 0.378,-0.139C0.378,-0.155 0.375,-0.168 0.367,-0.178C0.36,-0.189 0.349,-0.197 0.336,-0.204C0.323,-0.211 0.306,-0.217 0.287,-0.222C0.268,-0.227 0.247,-0.233 0.225,-0.239C0.203,-0.244 0.182,-0.25 0.162,-0.257C0.141,-0.264 0.122,-0.273 0.105,-0.284C0.088,-0.296 0.075,-0.31 0.064,-0.326C0.054,-0.343 0.049,-0.364 0.049,-0.389C0.049,-0.437 0.066,-0.474 0.1,-0.499C0.135,-0.524 0.185,-0.537 0.25,-0.537C0.309,-0.537 0.355,-0.526 0.389,-0.506C0.424,-0.485 0.445,-0.452 0.455,-0.407L0.375,-0.397C0.373,-0.411 0.367,-0.423 0.359,-0.432C0.352,-0.441 0.342,-0.449 0.331,-0.454C0.32,-0.46 0.308,-0.464 0.294,-0.467C0.28,-0.469 0.265,-0.47 0.25,-0.47C0.211,-0.47 0.181,-0.464 0.163,-0.452C0.144,-0.44 0.134,-0.422 0.134,-0.397C0.134,-0.383 0.138,-0.371 0.145,-0.362C0.152,-0.353 0.162,-0.345 0.174,-0.339C0.187,-0.332 0.202,-0.327 0.219,-0.322C0.237,-0.317 0.256,-0.312 0.277,-0.307C0.291,-0.304 0.306,-0.3 0.32,-0.296C0.335,-0.292 0.349,-0.287 0.363,-0.281C0.377,-0.275 0.39,-0.269 0.402,-0.261C0.414,-0.253 0.425,-0.244 0.434,-0.233C0.443,-0.223 0.45,-0.21 0.456,-0.196C0.461,-0.181 0.464,-0.165 0.464,-0.146Z" style="fill:rgb(255,254,254);fill-rule:nonzero;"/>
        </g>
        <g transform="matrix(41,0,0,41,359.271,29.709)">
            <path d="M0.464,-0.146C0.464,-0.121 0.459,-0.099 0.449,-0.08C0.44,-0.06 0.426,-0.044 0.408,-0.031C0.389,-0.018 0.367,-0.008 0.341,-0.001C0.314,0.006 0.284,0.01 0.25,0.01C0.219,0.01 0.191,0.007 0.167,0.003C0.142,-0.002 0.121,-0.01 0.102,-0.02C0.083,-0.03 0.068,-0.044 0.055,-0.061C0.043,-0.078 0.034,-0.099 0.028,-0.124L0.105,-0.139C0.113,-0.111 0.128,-0.09 0.152,-0.077C0.175,-0.064 0.208,-0.057 0.25,-0.057C0.268,-0.057 0.286,-0.058 0.302,-0.061C0.317,-0.064 0.331,-0.068 0.342,-0.074C0.354,-0.081 0.363,-0.089 0.369,-0.1C0.375,-0.11 0.378,-0.124 0.378,-0.139C0.378,-0.155 0.375,-0.168 0.367,-0.178C0.36,-0.189 0.349,-0.197 0.336,-0.204C0.323,-0.211 0.306,-0.217 0.287,-0.222C0.268,-0.227 0.247,-0.233 0.225,-0.239C0.203,-0.244 0.182,-0.25 0.162,-0.257C0.141,-0.264 0.122,-0.273 0.105,-0.284C0.088,-0.296 0.075,-0.31 0.064,-0.326C0.054,-0.343 0.049,-0.364 0.049,-0.389C0.049,-0.437 0.066,-0.474 0.1,-0.499C0.135,-0.524 0.185,-0.537 0.25,-0.537C0.309,-0.537 0.355,-0.526 0.389,-0.506C0.424,-0.485 0.445,-0.452 0.455,-0.407L0.375,-0.397C0.373,-0.411 0.367,-0.423 0.359,-0.432C0.352,-0.441 0.342,-0.449 0.331,-0.454C0.32,-0.46 0.308,-0.464 0.294,-0.467C0.28,-0.469 0.265,-0.47 0.25,-0.47C0.211,-0.47 0.181,-0.464 0.163,-0.452C0.144,-0.44 0.134,-0.422 0.134,-0.397C0.134,-0.383 0.138,-0.371 0.145,-0.362C0.152,-0.353 0.162,-0.345 0.174,-0.339C0.187,-0.332 0.202,-0.327 0.219,-0.322C0.237,-0.317 0.256,-0.312 0.277,-0.307C0.291,-0.304 0.306,-0.3 0.32,-0.296C0.335,-0.292 0.349,-0.287 0.363,-0.281C0.377,-0.275 0.39,-0.269 0.402,-0.261C0.414,-0.253 0.425,-0.244 0.434,-0.233C0.443,-0.223 0.45,-0.21 0.456,-0.196C0.461,-0.181 0.464,-0.165 0.464,-0.146Z" style="fill:rgb(255,254,254);fill-rule:nonzero;"/>
        </g>
        <g transform="matrix(41,0,0,41,391.162,29.709)">
            <path d="M0.155,-0.438C0.165,-0.456 0.175,-0.471 0.187,-0.484C0.198,-0.496 0.21,-0.507 0.224,-0.515C0.238,-0.523 0.253,-0.529 0.269,-0.532C0.285,-0.536 0.304,-0.538 0.324,-0.538C0.358,-0.538 0.385,-0.534 0.407,-0.524C0.429,-0.515 0.446,-0.503 0.458,-0.486C0.471,-0.47 0.479,-0.45 0.484,-0.427C0.489,-0.404 0.491,-0.379 0.491,-0.352L0.491,0L0.403,0L0.403,-0.335C0.403,-0.357 0.401,-0.377 0.399,-0.394C0.396,-0.411 0.391,-0.425 0.383,-0.436C0.375,-0.448 0.364,-0.456 0.35,-0.462C0.335,-0.467 0.317,-0.47 0.294,-0.47C0.273,-0.47 0.254,-0.466 0.238,-0.459C0.221,-0.451 0.206,-0.441 0.195,-0.427C0.183,-0.414 0.174,-0.397 0.167,-0.377C0.16,-0.358 0.157,-0.336 0.157,-0.312L0.157,0L0.069,0L0.069,-0.725L0.157,-0.725L0.157,-0.536C0.157,-0.525 0.157,-0.515 0.157,-0.504C0.156,-0.493 0.156,-0.483 0.156,-0.474C0.155,-0.465 0.155,-0.457 0.154,-0.451C0.154,-0.445 0.154,-0.44 0.153,-0.438L0.155,-0.438Z" style="fill:rgb(255,254,254);fill-rule:nonzero;"/>
        </g>
        <g transform="matrix(41,0,0,41,413.964,29.709)">
            <path d="M0.271,-0.004C0.257,0 0.244,0.003 0.23,0.005C0.216,0.007 0.2,0.008 0.182,0.008C0.111,0.008 0.076,-0.032 0.076,-0.112L0.076,-0.464L0.015,-0.464L0.015,-0.528L0.08,-0.528L0.105,-0.646L0.164,-0.646L0.164,-0.528L0.262,-0.528L0.262,-0.464L0.164,-0.464L0.164,-0.131C0.164,-0.105 0.168,-0.088 0.177,-0.077C0.185,-0.067 0.199,-0.062 0.22,-0.062C0.228,-0.062 0.236,-0.063 0.244,-0.064C0.252,-0.065 0.261,-0.067 0.271,-0.069L0.271,-0.004Z" style="fill:rgb(255,254,254);fill-rule:nonzero;"/>
        </g>
        <g transform="matrix(41,0,0,41,425.355,29.709)">
            <path d="M0.271,-0.004C0.257,0 0.244,0.003 0.23,0.005C0.216,0.007 0.2,0.008 0.182,0.008C0.111,0.008 0.076,-0.032 0.076,-0.112L0.076,-0.464L0.015,-0.464L0.015,-0.528L0.08,-0.528L0.105,-0.646L0.164,-0.646L0.164,-0.528L0.262,-0.528L0.262,-0.464L0.164,-0.464L0.164,-0.131C0.164,-0.105 0.168,-0.088 0.177,-0.077C0.185,-0.067 0.199,-0.062 0.22,-0.062C0.228,-0.062 0.236,-0.063 0.244,-0.064C0.252,-0.065 0.261,-0.067 0.271,-0.069L0.271,-0.004Z" style="fill:rgb(255,254,254);fill-rule:nonzero;"/>
        </g>
        <g transform="matrix(41,0,0,41,436.746,29.709)">
            <path d="M0.514,-0.267C0.514,-0.227 0.511,-0.19 0.504,-0.156C0.498,-0.122 0.487,-0.093 0.472,-0.068C0.457,-0.044 0.437,-0.025 0.412,-0.011C0.387,0.003 0.356,0.01 0.32,0.01C0.282,0.01 0.249,0.003 0.221,-0.012C0.192,-0.026 0.171,-0.049 0.156,-0.082L0.153,-0.082C0.154,-0.081 0.154,-0.078 0.154,-0.073C0.154,-0.068 0.154,-0.062 0.155,-0.054C0.155,-0.046 0.155,-0.037 0.155,-0.028C0.155,-0.018 0.155,-0.008 0.155,0.001L0.155,0.208L0.067,0.208L0.067,-0.42C0.067,-0.433 0.067,-0.445 0.067,-0.457C0.067,-0.469 0.067,-0.479 0.066,-0.489C0.066,-0.499 0.066,-0.507 0.065,-0.514C0.065,-0.521 0.065,-0.525 0.064,-0.528L0.149,-0.528C0.15,-0.527 0.15,-0.524 0.151,-0.518C0.151,-0.512 0.152,-0.505 0.152,-0.497C0.153,-0.489 0.153,-0.48 0.154,-0.47C0.154,-0.461 0.154,-0.452 0.154,-0.443L0.156,-0.443C0.164,-0.46 0.174,-0.475 0.184,-0.487C0.194,-0.498 0.206,-0.508 0.22,-0.516C0.233,-0.524 0.248,-0.529 0.264,-0.532C0.281,-0.536 0.299,-0.538 0.32,-0.538C0.356,-0.538 0.387,-0.531 0.412,-0.518C0.437,-0.505 0.457,-0.487 0.472,-0.463C0.487,-0.44 0.498,-0.411 0.504,-0.378C0.511,-0.344 0.514,-0.307 0.514,-0.267ZM0.422,-0.265C0.422,-0.297 0.42,-0.326 0.416,-0.352C0.412,-0.377 0.405,-0.398 0.396,-0.416C0.386,-0.434 0.373,-0.447 0.357,-0.456C0.341,-0.465 0.321,-0.47 0.297,-0.47C0.278,-0.47 0.259,-0.467 0.242,-0.461C0.225,-0.456 0.21,-0.445 0.197,-0.43C0.184,-0.414 0.174,-0.392 0.167,-0.365C0.159,-0.337 0.155,-0.302 0.155,-0.258C0.155,-0.22 0.158,-0.189 0.165,-0.163C0.171,-0.137 0.18,-0.116 0.192,-0.1C0.204,-0.084 0.218,-0.073 0.236,-0.066C0.253,-0.059 0.274,-0.055 0.296,-0.055C0.321,-0.055 0.341,-0.06 0.357,-0.069C0.373,-0.079 0.386,-0.092 0.396,-0.11C0.405,-0.128 0.412,-0.15 0.416,-0.176C0.42,-0.202 0.422,-0.231 0.422,-0.265Z" style="fill:rgb(255,254,254);fill-rule:nonzero;"/>
        </g>
        <g transform="matrix(41,0,0,41,459.548,29.709)">
            <path d="M0.464,-0.146C0.464,-0.121 0.459,-0.099 0.449,-0.08C0.44,-0.06 0.426,-0.044 0.408,-0.031C0.389,-0.018 0.367,-0.008 0.341,-0.001C0.314,0.006 0.284,0.01 0.25,0.01C0.219,0.01 0.191,0.007 0.167,0.003C0.142,-0.002 0.121,-0.01 0.102,-0.02C0.083,-0.03 0.068,-0.044 0.055,-0.061C0.043,-0.078 0.034,-0.099 0.028,-0.124L0.105,-0.139C0.113,-0.111 0.128,-0.09 0.152,-0.077C0.175,-0.064 0.208,-0.057 0.25,-0.057C0.268,-0.057 0.286,-0.058 0.302,-0.061C0.317,-0.064 0.331,-0.068 0.342,-0.074C0.354,-0.081 0.363,-0.089 0.369,-0.1C0.375,-0.11 0.378,-0.124 0.378,-0.139C0.378,-0.155 0.375,-0.168 0.367,-0.178C0.36,-0.189 0.349,-0.197 0.336,-0.204C0.323,-0.211 0.306,-0.217 0.287,-0.222C0.268,-0.227 0.247,-0.233 0.225,-0.239C0.203,-0.244 0.182,-0.25 0.162,-0.257C0.141,-0.264 0.122,-0.273 0.105,-0.284C0.088,-0.296 0.075,-0.31 0.064,-0.326C0.054,-0.343 0.049,-0.364 0.049,-0.389C0.049,-0.437 0.066,-0.474 0.1,-0.499C0.135,-0.524 0.185,-0.537 0.25,-0.537C0.309,-0.537 0.355,-0.526 0.389,-0.506C0.424,-0.485 0.445,-0.452 0.455,-0.407L0.375,-0.397C0.373,-0.411 0.367,-0.423 0.359,-0.432C0.352,-0.441 0.342,-0.449 0.331,-0.454C0.32,-0.46 0.308,-0.464 0.294,-0.467C0.28,-0.469 0.265,-0.47 0.25,-0.47C0.211,-0.47 0.181,-0.464 0.163,-0.452C0.144,-0.44 0.134,-0.422 0.134,-0.397C0.134,-0.383 0.138,-0.371 0.145,-0.362C0.152,-0.353 0.162,-0.345 0.174,-0.339C0.187,-0.332 0.202,-0.327 0.219,-0.322C0.237,-0.317 0.256,-0.312 0.277,-0.307C0.291,-0.304 0.306,-0.3 0.32,-0.296C0.335,-0.292 0.349,-0.287 0.363,-0.281C0.377,-0.275 0.39,-0.269 0.402,-0.261C0.414,-0.253 0.425,-0.244 0.434,-0.233C0.443,-0.223 0.45,-0.21 0.456,-0.196C0.461,-0.181 0.464,-0.165 0.464,-0.146Z" style="fill:rgb(255,254,254);fill-rule:nonzero;"/>
        </g>
        <g transform="matrix(41,0,0,41,480.048,29.709)">
            <path d="M0.091,-0.427L0.091,-0.528L0.187,-0.528L0.187,-0.427L0.091,-0.427ZM0.091,0L0.091,-0.101L0.187,-0.101L0.187,0L0.091,0Z" style="fill:rgb(255,254,254);fill-rule:nonzero;"/>
        </g>
        <g transform="matrix(41,0,0,41,491.439,29.709)">
            <path d="M0,0.01L0.201,-0.725L0.278,-0.725L0.079,0.01L0,0.01Z" style="fill:rgb(255,254,254);fill-rule:nonzero;"/>
        </g>
        <g transform="matrix(41,0,0,41,502.831,29.709)">
            <path d="M0,0.01L0.201,-0.725L0.278,-0.725L0.079,0.01L0,0.01Z" style="fill:rgb(255,254,254);fill-rule:nonzero;"/>
        </g>
        <g transform="matrix(41,0,0,41,514.222,29.709)">
            <path d="M0.268,0.208C0.237,0.208 0.21,0.204 0.187,0.198C0.164,0.192 0.144,0.183 0.127,0.172C0.11,0.16 0.097,0.146 0.086,0.13C0.076,0.114 0.069,0.097 0.064,0.077L0.152,0.064C0.158,0.089 0.171,0.108 0.191,0.121C0.211,0.134 0.237,0.141 0.27,0.141C0.29,0.141 0.308,0.138 0.324,0.132C0.34,0.127 0.354,0.118 0.366,0.106C0.377,0.094 0.386,0.078 0.392,0.058C0.398,0.039 0.401,0.015 0.401,-0.013L0.401,-0.098L0.4,-0.098C0.394,-0.085 0.386,-0.072 0.376,-0.06C0.367,-0.048 0.355,-0.037 0.341,-0.027C0.327,-0.018 0.311,-0.01 0.293,-0.005C0.275,0.001 0.254,0.004 0.23,0.004C0.197,0.004 0.168,-0.002 0.144,-0.013C0.12,-0.024 0.101,-0.041 0.086,-0.063C0.071,-0.086 0.059,-0.114 0.052,-0.147C0.045,-0.181 0.042,-0.219 0.042,-0.263C0.042,-0.306 0.045,-0.344 0.052,-0.377C0.059,-0.411 0.071,-0.44 0.087,-0.464C0.102,-0.487 0.123,-0.505 0.148,-0.518C0.173,-0.53 0.204,-0.537 0.24,-0.537C0.278,-0.537 0.31,-0.528 0.338,-0.511C0.365,-0.494 0.386,-0.47 0.401,-0.438L0.402,-0.438C0.402,-0.446 0.403,-0.455 0.403,-0.465C0.404,-0.475 0.404,-0.485 0.405,-0.494C0.405,-0.503 0.406,-0.511 0.406,-0.517C0.407,-0.524 0.408,-0.527 0.408,-0.528L0.492,-0.528C0.491,-0.525 0.491,-0.52 0.491,-0.513C0.49,-0.506 0.49,-0.498 0.49,-0.488C0.489,-0.479 0.489,-0.468 0.489,-0.456C0.489,-0.444 0.489,-0.432 0.489,-0.419L0.489,-0.015C0.489,0.059 0.471,0.114 0.434,0.152C0.398,0.189 0.342,0.208 0.268,0.208ZM0.401,-0.264C0.401,-0.301 0.397,-0.332 0.389,-0.359C0.381,-0.385 0.371,-0.406 0.358,-0.423C0.345,-0.439 0.33,-0.452 0.313,-0.459C0.296,-0.467 0.279,-0.471 0.262,-0.471C0.239,-0.471 0.22,-0.467 0.204,-0.459C0.188,-0.452 0.174,-0.439 0.164,-0.423C0.153,-0.406 0.145,-0.384 0.14,-0.358C0.135,-0.332 0.133,-0.301 0.133,-0.264C0.133,-0.226 0.135,-0.194 0.14,-0.168C0.145,-0.142 0.153,-0.121 0.164,-0.105C0.174,-0.09 0.187,-0.078 0.203,-0.071C0.219,-0.064 0.238,-0.061 0.26,-0.061C0.278,-0.061 0.295,-0.065 0.312,-0.072C0.329,-0.08 0.344,-0.092 0.357,-0.108C0.37,-0.124 0.381,-0.145 0.389,-0.171C0.397,-0.197 0.401,-0.228 0.401,-0.264Z" style="fill:rgb(255,254,254);fill-rule:nonzero;"/>
        </g>
        <g transform="matrix(41,0,0,41,537.024,29.709)">
            <path d="M0.067,-0.641L0.067,-0.725L0.155,-0.725L0.155,-0.641L0.067,-0.641ZM0.067,0L0.067,-0.528L0.155,-0.528L0.155,0L0.067,0Z" style="fill:rgb(255,254,254);fill-rule:nonzero;"/>
        </g>
        <g transform="matrix(41,0,0,41,546.133,29.709)">
            <path d="M0.271,-0.004C0.257,0 0.244,0.003 0.23,0.005C0.216,0.007 0.2,0.008 0.182,0.008C0.111,0.008 0.076,-0.032 0.076,-0.112L0.076,-0.464L0.015,-0.464L0.015,-0.528L0.08,-0.528L0.105,-0.646L0.164,-0.646L0.164,-0.528L0.262,-0.528L0.262,-0.464L0.164,-0.464L0.164,-0.131C0.164,-0.105 0.168,-0.088 0.177,-0.077C0.185,-0.067 0.199,-0.062 0.22,-0.062C0.228,-0.062 0.236,-0.063 0.244,-0.064C0.252,-0.065 0.261,-0.067 0.271,-0.069L0.271,-0.004Z" style="fill:rgb(255,254,254);fill-rule:nonzero;"/>
        </g>
        <g transform="matrix(41,0,0,41,557.524,29.709)">
            <path d="M0.155,-0.438C0.165,-0.456 0.175,-0.471 0.187,-0.484C0.198,-0.496 0.21,-0.507 0.224,-0.515C0.238,-0.523 0.253,-0.529 0.269,-0.532C0.285,-0.536 0.304,-0.538 0.324,-0.538C0.358,-0.538 0.385,-0.534 0.407,-0.524C0.429,-0.515 0.446,-0.503 0.458,-0.486C0.471,-0.47 0.479,-0.45 0.484,-0.427C0.489,-0.404 0.491,-0.379 0.491,-0.352L0.491,0L0.403,0L0.403,-0.335C0.403,-0.357 0.401,-0.377 0.399,-0.394C0.396,-0.411 0.391,-0.425 0.383,-0.436C0.375,-0.448 0.364,-0.456 0.35,-0.462C0.335,-0.467 0.317,-0.47 0.294,-0.47C0.273,-0.47 0.254,-0.466 0.238,-0.459C0.221,-0.451 0.206,-0.441 0.195,-0.427C0.183,-0.414 0.174,-0.397 0.167,-0.377C0.16,-0.358 0.157,-0.336 0.157,-0.312L0.157,0L0.069,0L0.069,-0.725L0.157,-0.725L0.157,-0.536C0.157,-0.525 0.157,-0.515 0.157,-0.504C0.156,-0.493 0.156,-0.483 0.156,-0.474C0.155,-0.465 0.155,-0.457 0.154,-0.451C0.154,-0.445 0.154,-0.44 0.153,-0.438L0.155,-0.438Z" style="fill:rgb(255,254,254);fill-rule:nonzero;"/>
        </g>
        <g transform="matrix(41,0,0,41,580.326,29.709)">
            <path d="M0.153,-0.528L0.153,-0.193C0.153,-0.168 0.155,-0.146 0.159,-0.129C0.163,-0.112 0.169,-0.098 0.177,-0.087C0.186,-0.077 0.197,-0.069 0.211,-0.065C0.225,-0.06 0.242,-0.058 0.262,-0.058C0.283,-0.058 0.302,-0.062 0.319,-0.069C0.335,-0.076 0.35,-0.087 0.362,-0.101C0.373,-0.115 0.383,-0.132 0.389,-0.152C0.396,-0.172 0.399,-0.196 0.399,-0.222L0.399,-0.528L0.487,-0.528L0.487,-0.113C0.487,-0.102 0.487,-0.09 0.487,-0.078C0.487,-0.066 0.487,-0.054 0.488,-0.043C0.488,-0.032 0.488,-0.023 0.489,-0.015C0.489,-0.007 0.489,-0.002 0.49,0L0.407,0C0.406,-0.002 0.406,-0.006 0.406,-0.013C0.405,-0.02 0.405,-0.029 0.405,-0.038C0.404,-0.047 0.404,-0.057 0.403,-0.066C0.403,-0.076 0.403,-0.084 0.403,-0.09L0.401,-0.09C0.393,-0.075 0.384,-0.061 0.374,-0.049C0.363,-0.036 0.352,-0.026 0.338,-0.017C0.325,-0.009 0.31,-0.002 0.292,0.003C0.275,0.007 0.255,0.01 0.232,0.01C0.203,0.01 0.178,0.006 0.157,-0.001C0.136,-0.008 0.118,-0.019 0.104,-0.034C0.091,-0.049 0.081,-0.068 0.074,-0.092C0.068,-0.115 0.065,-0.143 0.065,-0.176L0.065,-0.528L0.153,-0.528Z" style="fill:rgb(255,254,254);fill-rule:nonzero;"/>
        </g>
        <g transform="matrix(41,0,0,41,603.128,29.709)">
            <path d="M0.514,-0.267C0.514,-0.082 0.449,0.01 0.32,0.01C0.28,0.01 0.247,0.003 0.22,-0.012C0.193,-0.026 0.172,-0.05 0.155,-0.082L0.154,-0.082C0.154,-0.074 0.154,-0.065 0.154,-0.056C0.153,-0.047 0.153,-0.038 0.152,-0.03C0.152,-0.022 0.151,-0.016 0.151,-0.01C0.15,-0.005 0.15,-0.001 0.149,0L0.064,0C0.065,-0.003 0.065,-0.008 0.065,-0.015C0.066,-0.022 0.066,-0.03 0.066,-0.04C0.067,-0.05 0.067,-0.061 0.067,-0.072C0.067,-0.084 0.067,-0.096 0.067,-0.109L0.067,-0.725L0.155,-0.725L0.155,-0.518C0.155,-0.508 0.155,-0.499 0.155,-0.49C0.155,-0.481 0.155,-0.473 0.154,-0.466C0.154,-0.458 0.154,-0.451 0.153,-0.443L0.155,-0.443C0.172,-0.477 0.193,-0.501 0.22,-0.516C0.247,-0.531 0.28,-0.538 0.32,-0.538C0.387,-0.538 0.436,-0.516 0.467,-0.471C0.498,-0.426 0.514,-0.358 0.514,-0.267ZM0.422,-0.264C0.422,-0.3 0.42,-0.331 0.415,-0.357C0.41,-0.383 0.403,-0.405 0.393,-0.422C0.383,-0.438 0.37,-0.451 0.354,-0.458C0.339,-0.466 0.32,-0.47 0.297,-0.47C0.274,-0.47 0.254,-0.466 0.236,-0.459C0.218,-0.451 0.204,-0.439 0.192,-0.423C0.18,-0.406 0.171,-0.384 0.165,-0.357C0.158,-0.33 0.155,-0.297 0.155,-0.258C0.155,-0.221 0.158,-0.189 0.165,-0.163C0.171,-0.137 0.18,-0.116 0.192,-0.1C0.204,-0.084 0.218,-0.073 0.236,-0.066C0.253,-0.059 0.274,-0.055 0.296,-0.055C0.318,-0.055 0.336,-0.059 0.352,-0.066C0.368,-0.074 0.381,-0.086 0.391,-0.103C0.402,-0.119 0.409,-0.141 0.414,-0.167C0.419,-0.194 0.422,-0.226 0.422,-0.264Z" style="fill:rgb(255,254,254);fill-rule:nonzero;"/>
        </g>
        <g transform="matrix(41,0,0,41,625.931,29.709)">
            <rect x="0.091" y="-0.107" width="0.095" height="0.107" style="fill:rgb(255,254,254);fill-rule:nonzero;"/>
        </g>
        <g transform="matrix(41,0,0,41,637.322,29.709)">
            <path d="M0.134,-0.267C0.134,-0.236 0.136,-0.208 0.141,-0.183C0.145,-0.158 0.153,-0.136 0.163,-0.117C0.174,-0.099 0.187,-0.085 0.204,-0.075C0.221,-0.065 0.243,-0.06 0.268,-0.06C0.299,-0.06 0.325,-0.068 0.346,-0.085C0.367,-0.102 0.38,-0.128 0.385,-0.163L0.474,-0.157C0.471,-0.135 0.464,-0.114 0.455,-0.094C0.445,-0.074 0.432,-0.056 0.415,-0.041C0.398,-0.026 0.378,-0.013 0.354,-0.004C0.329,0.005 0.302,0.01 0.27,0.01C0.229,0.01 0.194,0.003 0.165,-0.011C0.136,-0.025 0.112,-0.045 0.094,-0.069C0.076,-0.094 0.063,-0.123 0.055,-0.156C0.047,-0.189 0.042,-0.226 0.042,-0.265C0.042,-0.3 0.045,-0.331 0.051,-0.359C0.057,-0.386 0.065,-0.41 0.076,-0.43C0.087,-0.45 0.099,-0.467 0.113,-0.481C0.128,-0.495 0.143,-0.506 0.16,-0.514C0.177,-0.523 0.194,-0.529 0.213,-0.532C0.231,-0.536 0.25,-0.538 0.269,-0.538C0.299,-0.538 0.325,-0.534 0.348,-0.526C0.371,-0.518 0.391,-0.507 0.408,-0.492C0.425,-0.478 0.438,-0.462 0.449,-0.442C0.459,-0.423 0.466,-0.403 0.471,-0.38L0.38,-0.374C0.376,-0.403 0.364,-0.426 0.346,-0.443C0.327,-0.461 0.301,-0.469 0.267,-0.469C0.242,-0.469 0.221,-0.465 0.204,-0.457C0.187,-0.448 0.174,-0.436 0.163,-0.419C0.153,-0.402 0.145,-0.381 0.141,-0.356C0.136,-0.331 0.134,-0.301 0.134,-0.267Z" style="fill:rgb(255,254,254);fill-rule:nonzero;"/>
        </g>
        <g transform="matrix(41,0,0,41,657.822,29.709)">
            <path d="M0.514,-0.265C0.514,-0.172 0.494,-0.103 0.453,-0.058C0.412,-0.013 0.353,0.01 0.276,0.01C0.239,0.01 0.206,0.004 0.177,-0.007C0.148,-0.018 0.124,-0.035 0.104,-0.058C0.084,-0.08 0.068,-0.109 0.058,-0.143C0.047,-0.178 0.042,-0.218 0.042,-0.265C0.042,-0.447 0.121,-0.538 0.279,-0.538C0.32,-0.538 0.355,-0.532 0.385,-0.521C0.415,-0.51 0.439,-0.493 0.458,-0.47C0.477,-0.447 0.491,-0.418 0.5,-0.384C0.51,-0.35 0.514,-0.31 0.514,-0.265ZM0.422,-0.265C0.422,-0.306 0.419,-0.34 0.412,-0.366C0.406,-0.393 0.397,-0.414 0.385,-0.43C0.372,-0.446 0.357,-0.457 0.34,-0.464C0.322,-0.47 0.302,-0.473 0.28,-0.473C0.258,-0.473 0.238,-0.47 0.219,-0.463C0.201,-0.456 0.186,-0.445 0.173,-0.429C0.161,-0.413 0.151,-0.391 0.144,-0.365C0.138,-0.338 0.134,-0.305 0.134,-0.265C0.134,-0.224 0.138,-0.19 0.145,-0.163C0.152,-0.136 0.162,-0.115 0.175,-0.099C0.187,-0.083 0.202,-0.071 0.219,-0.065C0.236,-0.058 0.255,-0.055 0.275,-0.055C0.297,-0.055 0.318,-0.058 0.336,-0.065C0.354,-0.071 0.37,-0.082 0.382,-0.098C0.395,-0.114 0.405,-0.136 0.412,-0.163C0.418,-0.19 0.422,-0.224 0.422,-0.265Z" style="fill:rgb(255,254,254);fill-rule:nonzero;"/>
        </g>
        <g transform="matrix(41,0,0,41,680.624,29.709)">
            <path d="M0.375,0L0.375,-0.335C0.375,-0.361 0.373,-0.382 0.37,-0.399C0.367,-0.417 0.361,-0.431 0.354,-0.441C0.346,-0.452 0.336,-0.459 0.324,-0.464C0.311,-0.468 0.296,-0.47 0.278,-0.47C0.26,-0.47 0.243,-0.467 0.228,-0.459C0.213,-0.452 0.2,-0.441 0.19,-0.427C0.179,-0.414 0.171,-0.397 0.165,-0.376C0.16,-0.356 0.157,-0.333 0.157,-0.306L0.157,0L0.069,0L0.069,-0.416C0.069,-0.427 0.069,-0.438 0.069,-0.45C0.069,-0.463 0.069,-0.474 0.068,-0.485C0.068,-0.496 0.068,-0.505 0.067,-0.513C0.067,-0.521 0.067,-0.526 0.066,-0.528L0.149,-0.528C0.15,-0.527 0.15,-0.522 0.15,-0.515C0.151,-0.508 0.151,-0.5 0.152,-0.49C0.152,-0.481 0.153,-0.472 0.153,-0.462C0.153,-0.453 0.153,-0.444 0.153,-0.438L0.155,-0.438C0.163,-0.453 0.171,-0.467 0.18,-0.479C0.189,-0.492 0.2,-0.502 0.212,-0.511C0.224,-0.52 0.238,-0.526 0.254,-0.531C0.27,-0.536 0.288,-0.538 0.309,-0.538C0.349,-0.538 0.381,-0.53 0.404,-0.514C0.427,-0.498 0.444,-0.473 0.453,-0.438L0.454,-0.438C0.462,-0.453 0.471,-0.467 0.48,-0.479C0.49,-0.492 0.502,-0.502 0.515,-0.511C0.528,-0.52 0.542,-0.526 0.559,-0.531C0.575,-0.536 0.593,-0.538 0.614,-0.538C0.641,-0.538 0.664,-0.535 0.683,-0.527C0.703,-0.52 0.719,-0.509 0.731,-0.494C0.743,-0.479 0.752,-0.46 0.758,-0.436C0.764,-0.413 0.767,-0.385 0.767,-0.352L0.767,0L0.68,0L0.68,-0.335C0.68,-0.361 0.679,-0.382 0.675,-0.399C0.672,-0.417 0.667,-0.431 0.659,-0.441C0.651,-0.452 0.641,-0.459 0.629,-0.464C0.617,-0.468 0.601,-0.47 0.583,-0.47C0.565,-0.47 0.548,-0.467 0.533,-0.46C0.518,-0.453 0.505,-0.442 0.495,-0.429C0.484,-0.415 0.476,-0.398 0.47,-0.377C0.465,-0.357 0.462,-0.333 0.462,-0.306L0.462,0L0.375,0Z" style="fill:rgb(255,254,254);fill-rule:nonzero;"/>
        </g>
        <g transform="matrix(41,0,0,41,714.777,29.709)">
            <path d="M0,0.01L0.201,-0.725L0.278,-0.725L0.079,0.01L0,0.01Z" style="fill:rgb(255,254,254);fill-rule:nonzero;"/>
        </g>
        <g transform="matrix(41,0,0,41,726.168,29.709)">
            <path d="M0.614,-0.481C0.614,-0.451 0.609,-0.423 0.599,-0.397C0.589,-0.371 0.575,-0.349 0.555,-0.33C0.535,-0.311 0.511,-0.296 0.481,-0.285C0.451,-0.274 0.417,-0.268 0.377,-0.268L0.175,-0.268L0.175,0L0.082,0L0.082,-0.688L0.372,-0.688C0.412,-0.688 0.448,-0.683 0.478,-0.673C0.508,-0.663 0.534,-0.649 0.554,-0.631C0.574,-0.613 0.589,-0.591 0.599,-0.566C0.609,-0.54 0.614,-0.512 0.614,-0.481ZM0.521,-0.48C0.521,-0.524 0.507,-0.557 0.48,-0.579C0.454,-0.602 0.414,-0.613 0.36,-0.613L0.175,-0.613L0.175,-0.342L0.364,-0.342C0.418,-0.342 0.457,-0.354 0.483,-0.377C0.508,-0.401 0.521,-0.435 0.521,-0.48Z" style="fill:rgb(255,254,254);fill-rule:nonzero;"/>
        </g>
        <g transform="matrix(41,0,0,41,753.515,29.709)">
            <path d="M0.547,0L0.547,-0.319L0.175,-0.319L0.175,0L0.082,0L0.082,-0.688L0.175,-0.688L0.175,-0.397L0.547,-0.397L0.547,-0.688L0.641,-0.688L0.641,0L0.547,0Z" style="fill:rgb(255,254,254);fill-rule:nonzero;"/>
        </g>
        <g transform="matrix(41,0,0,41,783.124,29.709)">
            <path d="M0.614,-0.481C0.614,-0.451 0.609,-0.423 0.599,-0.397C0.589,-0.371 0.575,-0.349 0.555,-0.33C0.535,-0.311 0.511,-0.296 0.481,-0.285C0.451,-0.274 0.417,-0.268 0.377,-0.268L0.175,-0.268L0.175,0L0.082,0L0.082,-0.688L0.372,-0.688C0.412,-0.688 0.448,-0.683 0.478,-0.673C0.508,-0.663 0.534,-0.649 0.554,-0.631C0.574,-0.613 0.589,-0.591 0.599,-0.566C0.609,-0.54 0.614,-0.512 0.614,-0.481ZM0.521,-0.48C0.521,-0.524 0.507,-0.557 0.48,-0.579C0.454,-0.602 0.414,-0.613 0.36,-0.613L0.175,-0.613L0.175,-0.342L0.364,-0.342C0.418,-0.342 0.457,-0.354 0.483,-0.377C0.508,-0.401 0.521,-0.435 0.521,-0.48Z" style="fill:rgb(255,254,254);fill-rule:nonzero;"/>
        </g>
        <g transform="matrix(41,0,0,41,810.471,29.709)">
            <path d="M0.667,0L0.667,-0.459C0.667,-0.476 0.667,-0.493 0.667,-0.51C0.668,-0.527 0.668,-0.543 0.669,-0.557C0.67,-0.574 0.67,-0.59 0.671,-0.605C0.667,-0.589 0.662,-0.572 0.657,-0.556C0.653,-0.542 0.648,-0.527 0.643,-0.511C0.638,-0.496 0.633,-0.481 0.628,-0.469L0.451,0L0.385,0L0.205,-0.469C0.203,-0.474 0.201,-0.479 0.199,-0.486L0.185,-0.529C0.182,-0.537 0.18,-0.544 0.178,-0.552C0.172,-0.569 0.167,-0.587 0.162,-0.605C0.162,-0.587 0.162,-0.569 0.163,-0.551C0.164,-0.536 0.164,-0.52 0.165,-0.503C0.165,-0.486 0.165,-0.472 0.165,-0.459L0.165,0L0.082,0L0.082,-0.688L0.205,-0.688L0.388,-0.211C0.39,-0.204 0.393,-0.196 0.396,-0.186C0.399,-0.176 0.402,-0.165 0.405,-0.154C0.408,-0.144 0.411,-0.133 0.413,-0.124C0.416,-0.114 0.417,-0.107 0.418,-0.102C0.419,-0.107 0.421,-0.114 0.424,-0.124C0.426,-0.134 0.429,-0.144 0.433,-0.155C0.436,-0.166 0.44,-0.176 0.443,-0.186C0.446,-0.196 0.449,-0.204 0.452,-0.211L0.631,-0.688L0.751,-0.688L0.751,0L0.667,0Z" style="fill:rgb(255,254,254);fill-rule:nonzero;"/>
        </g>
        <g transform="matrix(41,0,0,41,844.624,29.709)">
            <path d="M0.202,0.01C0.149,0.01 0.109,-0.004 0.083,-0.032C0.056,-0.06 0.042,-0.099 0.042,-0.147C0.042,-0.182 0.049,-0.211 0.062,-0.233C0.075,-0.255 0.093,-0.273 0.114,-0.286C0.135,-0.298 0.16,-0.307 0.187,-0.312C0.214,-0.317 0.242,-0.32 0.271,-0.32L0.389,-0.322L0.389,-0.351C0.389,-0.373 0.387,-0.391 0.382,-0.407C0.378,-0.422 0.371,-0.434 0.361,-0.444C0.352,-0.453 0.34,-0.46 0.326,-0.465C0.312,-0.469 0.295,-0.471 0.276,-0.471C0.259,-0.471 0.244,-0.47 0.23,-0.468C0.216,-0.465 0.204,-0.461 0.194,-0.454C0.184,-0.448 0.176,-0.439 0.17,-0.428C0.164,-0.418 0.16,-0.404 0.158,-0.387L0.066,-0.396C0.069,-0.416 0.075,-0.435 0.084,-0.453C0.094,-0.47 0.107,-0.485 0.123,-0.498C0.14,-0.511 0.161,-0.521 0.186,-0.528C0.212,-0.535 0.242,-0.538 0.278,-0.538C0.344,-0.538 0.394,-0.523 0.428,-0.492C0.461,-0.462 0.478,-0.418 0.478,-0.36L0.478,-0.133C0.478,-0.107 0.481,-0.087 0.488,-0.074C0.495,-0.061 0.508,-0.054 0.527,-0.054C0.532,-0.054 0.537,-0.055 0.542,-0.055C0.547,-0.056 0.552,-0.057 0.556,-0.058L0.556,-0.003C0.545,0 0.534,0.002 0.523,0.003C0.512,0.004 0.501,0.005 0.488,0.005C0.472,0.005 0.457,0.003 0.446,-0.002C0.434,-0.006 0.424,-0.013 0.417,-0.022C0.409,-0.031 0.403,-0.042 0.399,-0.055C0.396,-0.068 0.393,-0.083 0.392,-0.101L0.389,-0.101C0.38,-0.084 0.369,-0.069 0.358,-0.055C0.347,-0.042 0.334,-0.03 0.319,-0.02C0.304,-0.011 0.287,-0.003 0.268,0.002C0.249,0.007 0.227,0.01 0.202,0.01ZM0.222,-0.056C0.25,-0.056 0.275,-0.061 0.296,-0.072C0.317,-0.082 0.334,-0.095 0.348,-0.111C0.362,-0.127 0.372,-0.144 0.379,-0.163C0.386,-0.182 0.389,-0.2 0.389,-0.217L0.389,-0.261L0.293,-0.259C0.271,-0.258 0.251,-0.257 0.232,-0.254C0.212,-0.251 0.195,-0.246 0.181,-0.238C0.166,-0.23 0.154,-0.218 0.146,-0.204C0.137,-0.189 0.133,-0.17 0.133,-0.146C0.133,-0.117 0.141,-0.095 0.156,-0.08C0.171,-0.064 0.194,-0.056 0.222,-0.056Z" style="fill:rgb(255,254,254);fill-rule:nonzero;"/>
        </g>
        <g transform="matrix(41,0,0,41,867.426,29.709)">
            <path d="M0.067,-0.641L0.067,-0.725L0.155,-0.725L0.155,-0.641L0.067,-0.641ZM0.067,0L0.067,-0.528L0.155,-0.528L0.155,0L0.067,0Z" style="fill:rgb(255,254,254);fill-rule:nonzero;"/>
        </g>
        <g transform="matrix(41,0,0,41,876.535,29.709)">
            <rect x="0.067" y="-0.725" width="0.088" height="0.725" style="fill:rgb(255,254,254);fill-rule:nonzero;"/>
        </g>
        <g transform="matrix(41,0,0,41,885.644,29.709)">
            <path d="M0.135,-0.246C0.135,-0.218 0.138,-0.192 0.143,-0.169C0.149,-0.146 0.158,-0.126 0.17,-0.109C0.182,-0.092 0.197,-0.079 0.215,-0.07C0.234,-0.061 0.256,-0.056 0.282,-0.056C0.32,-0.056 0.351,-0.064 0.374,-0.079C0.397,-0.094 0.412,-0.114 0.42,-0.137L0.498,-0.115C0.492,-0.101 0.484,-0.086 0.474,-0.071C0.464,-0.056 0.451,-0.043 0.435,-0.031C0.418,-0.019 0.397,-0.009 0.372,-0.002C0.347,0.006 0.317,0.01 0.282,0.01C0.204,0.01 0.145,-0.014 0.104,-0.06C0.063,-0.107 0.042,-0.176 0.042,-0.268C0.042,-0.317 0.049,-0.359 0.061,-0.393C0.073,-0.428 0.09,-0.456 0.112,-0.477C0.133,-0.499 0.158,-0.514 0.187,-0.524C0.216,-0.533 0.246,-0.538 0.279,-0.538C0.323,-0.538 0.36,-0.531 0.39,-0.517C0.42,-0.502 0.444,-0.483 0.462,-0.457C0.48,-0.432 0.493,-0.402 0.5,-0.368C0.508,-0.334 0.512,-0.297 0.512,-0.257L0.512,-0.246L0.135,-0.246ZM0.421,-0.313C0.416,-0.369 0.402,-0.409 0.378,-0.435C0.355,-0.46 0.321,-0.473 0.277,-0.473C0.263,-0.473 0.247,-0.471 0.231,-0.466C0.215,-0.461 0.2,-0.453 0.187,-0.441C0.173,-0.429 0.161,-0.413 0.152,-0.392C0.142,-0.371 0.137,-0.345 0.136,-0.313L0.421,-0.313Z" style="fill:rgb(255,254,254);fill-rule:nonzero;"/>
        </g>
        <g transform="matrix(41,0,0,41,908.446,29.709)">
            <path d="M0.069,0L0.069,-0.405C0.069,-0.416 0.069,-0.428 0.069,-0.439C0.069,-0.451 0.069,-0.462 0.068,-0.473C0.068,-0.483 0.068,-0.493 0.067,-0.503C0.067,-0.512 0.067,-0.521 0.066,-0.528L0.149,-0.528L0.152,-0.473C0.153,-0.463 0.153,-0.453 0.153,-0.444C0.153,-0.435 0.153,-0.427 0.153,-0.42L0.155,-0.42C0.161,-0.441 0.168,-0.458 0.175,-0.473C0.182,-0.488 0.19,-0.5 0.2,-0.51C0.209,-0.519 0.22,-0.526 0.233,-0.531C0.246,-0.536 0.262,-0.538 0.281,-0.538C0.288,-0.538 0.295,-0.538 0.301,-0.536C0.308,-0.535 0.313,-0.534 0.316,-0.533L0.316,-0.453C0.311,-0.454 0.304,-0.455 0.296,-0.456C0.288,-0.457 0.279,-0.458 0.27,-0.458C0.249,-0.458 0.232,-0.453 0.218,-0.444C0.204,-0.435 0.192,-0.422 0.183,-0.406C0.174,-0.39 0.168,-0.371 0.164,-0.348C0.159,-0.326 0.157,-0.302 0.157,-0.275L0.157,0L0.069,0Z" style="fill:rgb(255,254,254);fill-rule:nonzero;"/>
        </g>
        <g transform="matrix(41,0,0,41,922.1,29.709)">
            <path d="M0,0.01L0.201,-0.725L0.278,-0.725L0.079,0.01L0,0.01Z" style="fill:rgb(255,254,254);fill-rule:nonzero;"/>
        </g>
        <g transform="matrix(41,0,0,41,933.491,29.709)">
            <path d="M0.614,-0.481C0.614,-0.451 0.609,-0.423 0.599,-0.397C0.589,-0.371 0.575,-0.349 0.555,-0.33C0.535,-0.311 0.511,-0.296 0.481,-0.285C0.451,-0.274 0.417,-0.268 0.377,-0.268L0.175,-0.268L0.175,0L0.082,0L0.082,-0.688L0.372,-0.688C0.412,-0.688 0.448,-0.683 0.478,-0.673C0.508,-0.663 0.534,-0.649 0.554,-0.631C0.574,-0.613 0.589,-0.591 0.599,-0.566C0.609,-0.54 0.614,-0.512 0.614,-0.481ZM0.521,-0.48C0.521,-0.524 0.507,-0.557 0.48,-0.579C0.454,-0.602 0.414,-0.613 0.36,-0.613L0.175,-0.613L0.175,-0.342L0.364,-0.342C0.418,-0.342 0.457,-0.354 0.483,-0.377C0.508,-0.401 0.521,-0.435 0.521,-0.48Z" style="fill:rgb(255,254,254);fill-rule:nonzero;"/>
        </g>
        <g transform="matrix(41,0,0,41,960.837,29.709)">
            <path d="M0.547,0L0.547,-0.319L0.175,-0.319L0.175,0L0.082,0L0.082,-0.688L0.175,-0.688L0.175,-0.397L0.547,-0.397L0.547,-0.688L0.641,-0.688L0.641,0L0.547,0Z" style="fill:rgb(255,254,254);fill-rule:nonzero;"/>
        </g>
        <g transform="matrix(41,0,0,41,990.446,29.709)">
            <path d="M0.614,-0.481C0.614,-0.451 0.609,-0.423 0.599,-0.397C0.589,-0.371 0.575,-0.349 0.555,-0.33C0.535,-0.311 0.511,-0.296 0.481,-0.285C0.451,-0.274 0.417,-0.268 0.377,-0.268L0.175,-0.268L0.175,0L0.082,0L0.082,-0.688L0.372,-0.688C0.412,-0.688 0.448,-0.683 0.478,-0.673C0.508,-0.663 0.534,-0.649 0.554,-0.631C0.574,-0.613 0.589,-0.591 0.599,-0.566C0.609,-0.54 0.614,-0.512 0.614,-0.481ZM0.521,-0.48C0.521,-0.524 0.507,-0.557 0.48,-0.579C0.454,-0.602 0.414,-0.613 0.36,-0.613L0.175,-0.613L0.175,-0.342L0.364,-0.342C0.418,-0.342 0.457,-0.354 0.483,-0.377C0.508,-0.401 0.521,-0.435 0.521,-0.48Z" style="fill:rgb(255,254,254);fill-rule:nonzero;"/>
        </g>
        <g transform="matrix(41,0,0,41,1017.79,29.709)">
            <path d="M0.667,0L0.667,-0.459C0.667,-0.476 0.667,-0.493 0.667,-0.51C0.668,-0.527 0.668,-0.543 0.669,-0.557C0.67,-0.574 0.67,-0.59 0.671,-0.605C0.667,-0.589 0.662,-0.572 0.657,-0.556C0.653,-0.542 0.648,-0.527 0.643,-0.511C0.638,-0.496 0.633,-0.481 0.628,-0.469L0.451,0L0.385,0L0.205,-0.469C0.203,-0.474 0.201,-0.479 0.199,-0.486L0.185,-0.529C0.182,-0.537 0.18,-0.544 0.178,-0.552C0.172,-0.569 0.167,-0.587 0.162,-0.605C0.162,-0.587 0.162,-0.569 0.163,-0.551C0.164,-0.536 0.164,-0.52 0.165,-0.503C0.165,-0.486 0.165,-0.472 0.165,-0.459L0.165,0L0.082,0L0.082,-0.688L0.205,-0.688L0.388,-0.211C0.39,-0.204 0.393,-0.196 0.396,-0.186C0.399,-0.176 0.402,-0.165 0.405,-0.154C0.408,-0.144 0.411,-0.133 0.413,-0.124C0.416,-0.114 0.417,-0.107 0.418,-0.102C0.419,-0.107 0.421,-0.114 0.424,-0.124C0.426,-0.134 0.429,-0.144 0.433,-0.155C0.436,-0.166 0.44,-0.176 0.443,-0.186C0.446,-0.196 0.449,-0.204 0.452,-0.211L0.631,-0.688L0.751,-0.688L0.751,0L0.667,0Z" style="fill:rgb(255,254,254);fill-rule:nonzero;"/>
        </g>
        <g transform="matrix(41,0,0,41,1051.95,29.709)">
            <path d="M0.202,0.01C0.149,0.01 0.109,-0.004 0.083,-0.032C0.056,-0.06 0.042,-0.099 0.042,-0.147C0.042,-0.182 0.049,-0.211 0.062,-0.233C0.075,-0.255 0.093,-0.273 0.114,-0.286C0.135,-0.298 0.16,-0.307 0.187,-0.312C0.214,-0.317 0.242,-0.32 0.271,-0.32L0.389,-0.322L0.389,-0.351C0.389,-0.373 0.387,-0.391 0.382,-0.407C0.378,-0.422 0.371,-0.434 0.361,-0.444C0.352,-0.453 0.34,-0.46 0.326,-0.465C0.312,-0.469 0.295,-0.471 0.276,-0.471C0.259,-0.471 0.244,-0.47 0.23,-0.468C0.216,-0.465 0.204,-0.461 0.194,-0.454C0.184,-0.448 0.176,-0.439 0.17,-0.428C0.164,-0.418 0.16,-0.404 0.158,-0.387L0.066,-0.396C0.069,-0.416 0.075,-0.435 0.084,-0.453C0.094,-0.47 0.107,-0.485 0.123,-0.498C0.14,-0.511 0.161,-0.521 0.186,-0.528C0.212,-0.535 0.242,-0.538 0.278,-0.538C0.344,-0.538 0.394,-0.523 0.428,-0.492C0.461,-0.462 0.478,-0.418 0.478,-0.36L0.478,-0.133C0.478,-0.107 0.481,-0.087 0.488,-0.074C0.495,-0.061 0.508,-0.054 0.527,-0.054C0.532,-0.054 0.537,-0.055 0.542,-0.055C0.547,-0.056 0.552,-0.057 0.556,-0.058L0.556,-0.003C0.545,0 0.534,0.002 0.523,0.003C0.512,0.004 0.501,0.005 0.488,0.005C0.472,0.005 0.457,0.003 0.446,-0.002C0.434,-0.006 0.424,-0.013 0.417,-0.022C0.409,-0.031 0.403,-0.042 0.399,-0.055C0.396,-0.068 0.393,-0.083 0.392,-0.101L0.389,-0.101C0.38,-0.084 0.369,-0.069 0.358,-0.055C0.347,-0.042 0.334,-0.03 0.319,-0.02C0.304,-0.011 0.287,-0.003 0.268,0.002C0.249,0.007 0.227,0.01 0.202,0.01ZM0.222,-0.056C0.25,-0.056 0.275,-0.061 0.296,-0.072C0.317,-0.082 0.334,-0.095 0.348,-0.111C0.362,-0.127 0.372,-0.144 0.379,-0.163C0.386,-0.182 0.389,-0.2 0.389,-0.217L0.389,-0.261L0.293,-0.259C0.271,-0.258 0.251,-0.257 0.232,-0.254C0.212,-0.251 0.195,-0.246 0.181,-0.238C0.166,-0.23 0.154,-0.218 0.146,-0.204C0.137,-0.189 0.133,-0.17 0.133,-0.146C0.133,-0.117 0.141,-0.095 0.156,-0.08C0.171,-0.064 0.194,-0.056 0.222,-0.056Z" style="fill:rgb(255,254,254);fill-rule:nonzero;"/>
        </g>
        <g transform="matrix(41,0,0,41,1074.75,29.709)">
            <path d="M0.067,-0.641L0.067,-0.725L0.155,-0.725L0.155,-0.641L0.067,-0.641ZM0.067,0L0.067,-0.528L0.155,-0.528L0.155,0L0.067,0Z" style="fill:rgb(255,254,254);fill-rule:nonzero;"/>
        </g>
        <g transform="matrix(41,0,0,41,1083.86,29.709)">
            <rect x="0.067" y="-0.725" width="0.088" height="0.725" style="fill:rgb(255,254,254);fill-rule:nonzero;"/>
        </g>
        <g transform="matrix(41,0,0,41,1092.97,29.709)">
            <path d="M0.135,-0.246C0.135,-0.218 0.138,-0.192 0.143,-0.169C0.149,-0.146 0.158,-0.126 0.17,-0.109C0.182,-0.092 0.197,-0.079 0.215,-0.07C0.234,-0.061 0.256,-0.056 0.282,-0.056C0.32,-0.056 0.351,-0.064 0.374,-0.079C0.397,-0.094 0.412,-0.114 0.42,-0.137L0.498,-0.115C0.492,-0.101 0.484,-0.086 0.474,-0.071C0.464,-0.056 0.451,-0.043 0.435,-0.031C0.418,-0.019 0.397,-0.009 0.372,-0.002C0.347,0.006 0.317,0.01 0.282,0.01C0.204,0.01 0.145,-0.014 0.104,-0.06C0.063,-0.107 0.042,-0.176 0.042,-0.268C0.042,-0.317 0.049,-0.359 0.061,-0.393C0.073,-0.428 0.09,-0.456 0.112,-0.477C0.133,-0.499 0.158,-0.514 0.187,-0.524C0.216,-0.533 0.246,-0.538 0.279,-0.538C0.323,-0.538 0.36,-0.531 0.39,-0.517C0.42,-0.502 0.444,-0.483 0.462,-0.457C0.48,-0.432 0.493,-0.402 0.5,-0.368C0.508,-0.334 0.512,-0.297 0.512,-0.257L0.512,-0.246L0.135,-0.246ZM0.421,-0.313C0.416,-0.369 0.402,-0.409 0.378,-0.435C0.355,-0.46 0.321,-0.473 0.277,-0.473C0.263,-0.473 0.247,-0.471 0.231,-0.466C0.215,-0.461 0.2,-0.453 0.187,-0.441C0.173,-0.429 0.161,-0.413 0.152,-0.392C0.142,-0.371 0.137,-0.345 0.136,-0.313L0.421,-0.313Z" style="fill:rgb(255,254,254);fill-rule:nonzero;"/>
        </g>
        <g transform="matrix(41,0,0,41,1115.77,29.709)">
            <path d="M0.069,0L0.069,-0.405C0.069,-0.416 0.069,-0.428 0.069,-0.439C0.069,-0.451 0.069,-0.462 0.068,-0.473C0.068,-0.483 0.068,-0.493 0.067,-0.503C0.067,-0.512 0.067,-0.521 0.066,-0.528L0.149,-0.528L0.152,-0.473C0.153,-0.463 0.153,-0.453 0.153,-0.444C0.153,-0.435 0.153,-0.427 0.153,-0.42L0.155,-0.42C0.161,-0.441 0.168,-0.458 0.175,-0.473C0.182,-0.488 0.19,-0.5 0.2,-0.51C0.209,-0.519 0.22,-0.526 0.233,-0.531C0.246,-0.536 0.262,-0.538 0.281,-0.538C0.288,-0.538 0.295,-0.538 0.301,-0.536C0.308,-0.535 0.313,-0.534 0.316,-0.533L0.316,-0.453C0.311,-0.454 0.304,-0.455 0.296,-0.456C0.288,-0.457 0.279,-0.458 0.27,-0.458C0.249,-0.458 0.232,-0.453 0.218,-0.444C0.204,-0.435 0.192,-0.422 0.183,-0.406C0.174,-0.39 0.168,-0.371 0.164,-0.348C0.159,-0.326 0.157,-0.302 0.157,-0.275L0.157,0L0.069,0Z" style="fill:rgb(255,254,254);fill-rule:nonzero;"/>
        </g>
    </g>
</svg>
